<svg xmlns="http://www.w3.org/2000/svg" width="1200" height="630" viewBox="0 0 1200 630" role="img" aria-labelledby="ogTitle ogDesc">
  <title id="ogTitle">Souldawn</title>
  <desc id="ogDesc">Souldawn — люди интереснее, чем их фото. Знакомства по интересам в Telegram и на iPhone</desc>
  <!-- Палитра дизайн-системы: фон #0a0b0f, акцент #ff2d6f, вторая аура #8b5cf6.
       Знак марки «две ауры» — геометрия из tools/brandmark.py.
       Ворднарк белым, без перелива: градиентный текст читается как
       развлекательное приложение, а марка должна выглядеть спокойно. -->
  <defs>
    <radialGradient id="glow1" cx="18%" cy="0%" r="70%">
      <stop offset="0%" stop-color="#ff2d6f" stop-opacity="0.16"/>
      <stop offset="60%" stop-color="#ff2d6f" stop-opacity="0"/>
    </radialGradient>
    <radialGradient id="glow2" cx="100%" cy="100%" r="70%">
      <stop offset="0%" stop-color="#8b5cf6" stop-opacity="0.14"/>
      <stop offset="60%" stop-color="#8b5cf6" stop-opacity="0"/>
    </radialGradient>
    <linearGradient id="cardGrad" x1="0%" y1="0%" x2="100%" y2="100%">
      <stop offset="0%" stop-color="#ff2d6f"/>
      <stop offset="100%" stop-color="#5b3aa8"/>
    </linearGradient>
    <clipPath id="ogLens"><circle cx="-40.6" cy="25.2" r="70"/></clipPath>
  </defs>

  <rect width="1200" height="630" fill="#0a0b0f"/>
  <rect width="1200" height="630" fill="url(#glow1)"/>
  <rect width="1200" height="630" fill="url(#glow2)"/>

  <!-- декоративная карточка справа -->
  <g transform="translate(770,120)" opacity="0.9">
    <rect x="0" y="0" width="300" height="380" rx="32" fill="url(#cardGrad)"/>
    <rect x="0" y="0" width="300" height="380" rx="32" fill="#0a0b0f" opacity="0.12"/>
    <rect x="24" y="24" width="130" height="34" rx="17" fill="#ffffff" opacity="0.22"/>
    <rect x="0" y="260" width="300" height="120" rx="0" fill="#0a0b0f" opacity="0.35"/>
    <rect x="28" y="292" width="150" height="20" rx="10" fill="#ffffff" opacity="0.85"/>
    <rect x="28" y="322" width="220" height="14" rx="7" fill="#ffffff" opacity="0.55"/>
    <rect x="28" y="346" width="90" height="18" rx="9" fill="#ffffff" opacity="0.3"/>
    <rect x="126" y="346" width="90" height="18" rx="9" fill="#ffffff" opacity="0.3"/>
  </g>

  <!-- знак марки: две ауры-кольца, пересечение — свет.
       Центр группы (0,0), R=70, смещения ±40.6 / ∓25.2, толщина 0.30R -->
  <g transform="translate(210,235)">
    <circle cx="-40.6" cy="25.2" r="59.5" fill="none" stroke="#ff2d6f" stroke-width="21"/>
    <circle cx="40.6" cy="-25.2" r="59.5" fill="none" stroke="#8b5cf6" stroke-width="21"/>
    <circle cx="40.6" cy="-25.2" r="70" fill="#fafbfc" clip-path="url(#ogLens)"/>
  </g>

  <text x="120" y="430" font-family="Arial, Helvetica, sans-serif" font-size="84" font-weight="800" letter-spacing="-2" fill="#fafbfc">souldawn</text>
  <text x="122" y="484" font-family="Arial, Helvetica, sans-serif" font-size="30" font-weight="400" fill="#c8cdd4">Люди интереснее, чем их фото</text>
  <text x="122" y="526" font-family="Arial, Helvetica, sans-serif" font-size="26" font-weight="400" fill="#9ba1ab">Знакомства по интересам · Telegram и iPhone</text>
</svg>
